<svg width="225" height="48" viewBox="0 0 225 48" fill="none" xmlns="http://www.w3.org/2000/svg">
<path d="M19.9609 14.6578C15.0646 12.8798 10.1661 11.7638 5 11.2603V32.4039C10.1653 32.8919 15.0733 33.9719 19.9609 35.6871V14.6578Z" fill="white"/>
<path fill-rule="evenodd" clip-rule="evenodd" d="M4.16039 8.17381L2 8V35.1658L3.83961 35.3138C9.54179 35.7725 14.8918 36.9735 20.2585 38.9864L22.9609 40V12.5751L21.6632 12.0883C15.9517 9.94608 10.2371 8.66269 4.16039 8.17381ZM4 10.1674V33.3202C9.18073 33.737 14.0851 34.7484 18.9609 36.4C19.6279 36.6259 20.2943 36.8638 20.9609 37.1138V13.961C16.0529 12.1201 11.1504 10.9351 6 10.3594C5.33761 10.2853 4.67112 10.2214 4 10.1674Z" fill="white"/>
<path d="M43 11.2603C37.8339 11.7638 32.9354 12.8798 28.0391 14.6578V35.6871C32.9267 33.9719 37.8347 32.8919 43 32.4039V11.2603Z" fill="white"/>
<path fill-rule="evenodd" clip-rule="evenodd" d="M46 35.1658V8L43.8396 8.17381C37.7629 8.66269 32.0483 9.94608 26.3368 12.0883L25.0391 12.5751V40L27.7415 38.9864C33.1082 36.9735 38.4582 35.7725 44.1604 35.3138L46 35.1658ZM29.0391 36.4C28.3721 36.6259 27.7057 36.8638 27.0391 37.1138V13.961C31.9471 12.1201 36.8496 10.9351 42 10.3594C42.6624 10.2853 43.3289 10.2214 44 10.1674V33.3202C38.8193 33.737 33.9149 34.7484 29.0391 36.4Z" fill="white"/>
<path d="M56.8 14.8717C56.8 13.5117 56.6133 12.5117 56.24 11.8717C55.8667 11.205 55.12 10.8717 54 10.8717H53.6V9.67165H64.4C67.76 9.67165 70.56 10.1383 72.8 11.0717C75.0667 12.005 76.2 13.8717 76.2 16.6717C76.2 17.8983 75.7067 19.0583 74.72 20.1517C73.76 21.2183 72.4 21.9783 70.64 22.4317C75.1467 22.885 77.4 24.9917 77.4 28.7517C77.4 31.525 76.2933 33.445 74.08 34.5117C71.8667 35.5517 69.04 36.0717 65.6 36.0717H56.8V14.8717ZM65 21.6317C66.7333 21.6317 68.0933 21.2317 69.08 20.4317C70.0933 19.605 70.6 18.285 70.6 16.4717C70.6 14.6317 70 13.3117 68.8 12.5117C67.6267 11.685 66.16 11.2717 64.4 11.2717C63.68 11.2717 63.12 11.325 62.72 11.4317L62 11.5517V21.6317H65ZM65 34.4717C67.2133 34.4717 68.8933 33.9917 70.04 33.0317C71.2133 32.0717 71.8 30.7117 71.8 28.9517C71.8 25.2717 69.5333 23.4317 65 23.4317H62V34.0717C62.2933 34.1783 62.56 34.245 62.8 34.2717C63.3867 34.405 64.0533 34.4717 64.8 34.4717H65ZM93.4222 36.8717C90.8355 36.8717 88.5289 36.2583 86.5022 35.0317C84.5022 33.805 82.9555 32.125 81.8622 29.9917C80.7689 27.8583 80.2222 25.485 80.2222 22.8717C80.2222 20.2583 80.7689 17.885 81.8622 15.7517C82.9555 13.6183 84.5022 11.9383 86.5022 10.7117C88.5289 9.48499 90.8355 8.87165 93.4222 8.87165C96.0089 8.87165 98.3022 9.48499 100.302 10.7117C102.302 11.9383 103.849 13.6183 104.942 15.7517C106.036 17.885 106.582 20.2583 106.582 22.8717C106.582 25.485 106.036 27.8583 104.942 29.9917C103.849 32.125 102.302 33.805 100.302 35.0317C98.3022 36.2583 96.0089 36.8717 93.4222 36.8717ZM93.4222 35.0717C95.8489 35.0717 97.7289 34.0183 99.0622 31.9117C100.396 29.7783 101.062 26.765 101.062 22.8717C101.062 18.9783 100.396 15.9783 99.0622 13.8717C97.7289 11.7383 95.8489 10.6717 93.4222 10.6717C90.9955 10.6717 89.1155 11.7383 87.7822 13.8717C86.4755 15.9783 85.8222 18.9783 85.8222 22.8717C85.8222 26.765 86.4755 29.7783 87.7822 31.9117C89.1155 34.0183 90.9955 35.0717 93.4222 35.0717ZM122.758 36.8717C120.171 36.8717 117.865 36.2583 115.838 35.0317C113.838 33.805 112.291 32.125 111.198 29.9917C110.105 27.8583 109.558 25.485 109.558 22.8717C109.558 20.2583 110.105 17.885 111.198 15.7517C112.291 13.6183 113.838 11.9383 115.838 10.7117C117.865 9.48499 120.171 8.87165 122.758 8.87165C125.345 8.87165 127.638 9.48499 129.638 10.7117C131.638 11.9383 133.185 13.6183 134.278 15.7517C135.371 17.885 135.918 20.2583 135.918 22.8717C135.918 25.485 135.371 27.8583 134.278 29.9917C133.185 32.125 131.638 33.805 129.638 35.0317C127.638 36.2583 125.345 36.8717 122.758 36.8717ZM122.758 35.0717C125.185 35.0717 127.065 34.0183 128.398 31.9117C129.731 29.7783 130.398 26.765 130.398 22.8717C130.398 18.9783 129.731 15.9783 128.398 13.8717C127.065 11.7383 125.185 10.6717 122.758 10.6717C120.331 10.6717 118.451 11.7383 117.118 13.8717C115.811 15.9783 115.158 18.9783 115.158 22.8717C115.158 26.765 115.811 29.7783 117.118 31.9117C118.451 34.0183 120.331 35.0717 122.758 35.0717ZM162.42 36.4717C160.74 36.4717 159.126 36.1383 157.58 35.4717C156.06 34.7783 154.42 33.5117 152.66 31.6717L146.22 24.9517V36.0717H141.02L140.98 14.8717C140.98 13.5117 140.793 12.5117 140.42 11.8717C140.046 11.205 139.3 10.8717 138.18 10.8717H137.78V9.67165H142.58C143.513 9.67165 144.233 9.83165 144.74 10.1517C145.273 10.4717 145.646 11.005 145.86 11.7517C146.1 12.4983 146.22 13.5383 146.22 14.8717V22.4717L153.14 13.8717C154.126 12.5917 155.18 11.5783 156.3 10.8317C157.446 10.0583 158.753 9.67165 160.22 9.67165H163.02V11.0717C161.366 11.0717 159.94 11.285 158.74 11.7117C157.566 12.1117 156.553 12.845 155.7 13.9117L149.74 21.2717L158.98 30.8717C159.966 31.965 161.073 32.925 162.3 33.7517C163.553 34.5517 164.566 35.005 165.34 35.1117V36.0717C164.54 36.3383 163.566 36.4717 162.42 36.4717ZM171.674 36.0717C170.714 36.0717 169.981 35.925 169.474 35.6317C168.967 35.3117 168.607 34.7917 168.394 34.0717C168.181 33.325 168.074 32.2583 168.074 30.8717V9.67165H173.274V30.8717C173.274 32.2317 173.461 33.245 173.834 33.9117C174.207 34.5517 174.954 34.8717 176.074 34.8717H176.474V36.0717H171.674ZM180.863 14.8717C180.863 13.5117 180.676 12.5117 180.303 11.8717C179.929 11.205 179.183 10.8717 178.063 10.8717H177.663V9.67165H194.423C196.689 9.67165 197.823 10.7383 197.823 12.8717V16.2717H196.623C196.623 14.5917 196.196 13.3783 195.343 12.6317C194.516 11.8583 193.276 11.4717 191.623 11.4717H186.063V21.6717H194.863V23.4717H186.063V36.0717H180.863V14.8717ZM209.785 25.5117L202.705 14.8717C201.905 13.725 201.025 12.725 200.065 11.8717C199.132 11.0183 198.238 10.5517 197.385 10.4717V9.67165H201.745C203.105 9.67165 204.332 10.0983 205.425 10.9517C206.545 11.805 207.492 12.845 208.265 14.0717L213.705 22.2717L221.465 9.67165H224.065L214.985 24.4317V36.0717H209.785V25.5117Z" fill="white"/>
</svg>
